# xmcd CD database file
#
# Track frame offsets:
#	150
#	11792
#	25015
#	40837
#	53540
#	67302
#	79100
#	89117
#	99585
#	106850
#	118725
#	127812
#	140670
#	153735
#	166037
#
# Disc length: 2373 seconds
#
# Revision: 5
# Processed by: cddbd v1.5.2PL0 Copyright (c) Steve Scherf et al.
# Submitted via: CDex 1.51
#
DISCID=c509430f
DTITLE=Sonny Boy Williamson II - One Way Out
DYEAR=1968
DGENRE=Blues
TTITLE0=Born Blind
TTITLE1=Work With Me
TTITLE2=You Killing Me
TTITLE3=Keep It To Yourself
TTITLE4=Don't Lose Your Eye
TTITLE5=Good Evening Everybody
TTITLE6=Too Close Together
TTITLE7=Let Your Conscience Be Your Guide
TTITLE8=I Wonder Why
TTITLE9=This Is My Apartment
TTITLE10=One Way Out
TTITLE11=Like Wolf
TTITLE12=Have You Ever Been In Love
TTITLE13=Cool Disposition
TTITLE14=I Know What Love Is All About
EXTD=CHD-9116\n\nOriginally released January 1975 as CHV-417\n\nSubmitted 6/12/97\n[Jmccoy@efn.org] YEAR: 1968
EXTT0=
EXTT1=
EXTT2=
EXTT3=
EXTT4=
EXTT5=
EXTT6=
EXTT7=
EXTT8=
EXTT9=
EXTT10=
EXTT11=
EXTT12=
EXTT13=
EXTT14=
PLAYORDER=
